<svg width="1440" height="1024" viewBox="0 0 1440 1024" fill="none" xmlns="http://www.w3.org/2000/svg">
<g clip-path="url(#clip0_77_5)">
<rect width="1440" height="1024" fill="#08162C"/>
<path d="M355.5 205L354.673 214.6L349 216L354.673 217.4L355.5 227L356.327 217.4L362 216L356.327 214.6L355.5 205Z" fill="white"/>
<path d="M445.5 983L444.673 992.6L439 994L444.673 995.4L445.5 1005L446.327 995.4L452 994L446.327 992.6L445.5 983Z" fill="white"/>
<path d="M230.5 865L229.673 874.6L224 876L229.673 877.4L230.5 887L231.327 877.4L237 876L231.327 874.6L230.5 865Z" fill="white"/>
<path d="M82.5 426L81.6727 435.6L76 437L81.6727 438.4L82.5 448L83.3273 438.4L89 437L83.3273 435.6L82.5 426Z" fill="white"/>
<path d="M470.5 2L469.673 11.5999L464 13L469.673 14.4001L470.5 24L471.327 14.4001L477 13L471.327 11.5999L470.5 2Z" fill="white"/>
<path d="M132.5 105L131.673 114.6L126 116L131.673 117.4L132.5 127L133.327 117.4L139 116L133.327 114.6L132.5 105Z" fill="white"/>
<path d="M1090.5 8L1089.67 17.5999L1084 19L1089.67 20.4001L1090.5 30L1091.33 20.4001L1097 19L1091.33 17.5999L1090.5 8Z" fill="white"/>
<path d="M470.5 637L469.673 646.6L464 648L469.673 649.4L470.5 659L471.327 649.4L477 648L471.327 646.6L470.5 637Z" fill="white"/>
<path d="M894.5 183L893.673 192.6L888 194L893.673 195.4L894.5 205L895.327 195.4L901 194L895.327 192.6L894.5 183Z" fill="white"/>
<path d="M1356.5 906L1355.67 915.6L1350 917L1355.67 918.4L1356.5 928L1357.33 918.4L1363 917L1357.33 915.6L1356.5 906Z" fill="white"/>
<path d="M772.5 754L771.673 763.6L766 765L771.673 766.4L772.5 776L773.327 766.4L779 765L773.327 763.6L772.5 754Z" fill="white"/>
<path d="M291.5 497L290.673 506.6L285 508L290.673 509.4L291.5 519L292.327 509.4L298 508L292.327 506.6L291.5 497Z" fill="white"/>
<path d="M1404.5 659L1403.67 668.6L1398 670L1403.67 671.4L1404.5 681L1405.33 671.4L1411 670L1405.33 668.6L1404.5 659Z" fill="white"/>
<path d="M1269.5 127L1268.67 136.6L1263 138L1268.67 139.4L1269.5 149L1270.33 139.4L1276 138L1270.33 136.6L1269.5 127Z" fill="white"/>
<path d="M1299.5 365L1298.67 374.6L1293 376L1298.67 377.4L1299.5 387L1300.33 377.4L1306 376L1300.33 374.6L1299.5 365Z" fill="white"/>
<circle cx="354" cy="820" r="2" fill="white"/>
<circle cx="1400" cy="36" r="2" fill="white"/>
<circle cx="1117" cy="283" r="2" fill="white"/>
<circle cx="139" cy="752" r="2" fill="white"/>
<circle cx="969" cy="981" r="2" fill="white"/>
<circle cx="965" cy="508" r="2" fill="white"/>
<circle cx="1221" cy="1022" r="2" fill="white"/>
<circle cx="1174" cy="713" r="2" fill="white"/>
<circle cx="729" cy="63" r="2" fill="white"/>
<circle cx="781" cy="471" r="2" fill="white"/>
<circle cx="1428" cy="243" r="2" fill="white"/>
<circle cx="2" cy="247" r="2" fill="white"/>
<circle cx="495" cy="348" r="2" fill="white"/>
<circle cx="23" cy="956" r="2" fill="white"/>
<circle cx="124" cy="26" r="2" fill="white"/>
</g>
<defs>
<clipPath id="clip0_77_5">
<rect width="1440" height="1024" fill="white"/>
</clipPath>
</defs>
</svg>
